<?xml version="1.0" encoding="UTF-8"?>
<svg width="32" height="32" viewBox="0 0 32 32" fill="none" xmlns="http://www.w3.org/2000/svg">
  <circle cx="16" cy="16" r="16" fill="#8A2BE2"/>
  <path d="M16 25.6C21.3019 25.6 25.6 21.3019 25.6 16C25.6 10.6981 21.3019 6.4 16 6.4C10.6981 6.4 6.4 10.6981 6.4 16C6.4 21.3019 10.6981 25.6 16 25.6Z" fill="#8A2BE2"/>
  <path d="M16 28C22.6274 28 28 22.6274 28 16C28 9.37258 22.6274 4 16 4C9.37258 4 4 9.37258 4 16C4 22.6274 9.37258 28 16 28Z" fill="#8A2BE2"/>
  <path d="M11 10H13V22H11V10Z" fill="white"/>
  <path d="M15 10H17.5C20.5 10 22 12 22 16C22 20 20.5 22 17.5 22H15V10ZM17 12V20H17.5C19 20 20 19 20 16C20 13 19 12 17.5 12H17Z" fill="white"/>
</svg>
