<?xml version="1.0" encoding="UTF-8"?>
<svg width="32" height="32" viewBox="0 0 32 32" fill="none" xmlns="http://www.w3.org/2000/svg">
  <circle cx="16" cy="16" r="16" fill="#2775CA"/>
  <path d="M16 25.6C21.3019 25.6 25.6 21.3019 25.6 16C25.6 10.6981 21.3019 6.4 16 6.4C10.6981 6.4 6.4 10.6981 6.4 16C6.4 21.3019 10.6981 25.6 16 25.6Z" fill="#2775CA"/>
  <path d="M16 28C22.6274 28 28 22.6274 28 16C28 9.37258 22.6274 4 16 4C9.37258 4 4 9.37258 4 16C4 22.6274 9.37258 28 16 28Z" fill="#2775CA"/>
  <path d="M17.9 19.1V20.5C17.9 20.6 17.8 20.7 17.7 20.7H14.3C14.2 20.7 14.1 20.6 14.1 20.5V19.1C13.1 18.8 12.3 18.1 12 17.1C12 17 12.1 16.9 12.2 16.9H13.4C13.5 16.9 13.5 17 13.6 17C13.8 17.4 14.2 17.7 14.7 17.7H17.3C17.8 17.7 18.2 17.3 18.2 16.8C18.2 16.3 17.8 15.9 17.3 15.9H14.7C13.2 15.9 12 14.7 12 13.2C12 11.9 12.9 10.8 14.1 10.5V9.1C14.1 9 14.2 8.9 14.3 8.9H17.7C17.8 8.9 17.9 9 17.9 9.1V10.5C18.9 10.8 19.7 11.5 20 12.5C20 12.6 19.9 12.7 19.8 12.7H18.6C18.5 12.7 18.5 12.6 18.4 12.6C18.2 12.2 17.8 11.9 17.3 11.9H14.7C14.2 11.9 13.8 12.3 13.8 12.8C13.8 13.3 14.2 13.7 14.7 13.7H17.3C18.8 13.7 20 14.9 20 16.4C20 17.7 19.1 18.8 17.9 19.1Z" fill="white"/>
</svg>
